<svg width="22" height="33" viewBox="0 0 22 33" fill="none" xmlns="http://www.w3.org/2000/svg">
<path d="M6 28.9375V26.5H15.9375V28.9375C15.9375 29.3125 15.8125 29.6875 15.625 30.0625L14.5625 31.625C14.1875 32.1875 13.5625 32.5625 12.875 32.5625H9.0625C8.375 32.5625 7.75 32.1875 7.375 31.625L6.3125 30.0625C6.0625 29.6875 6 29.3125 6 28.9375ZM0 11.5C0 5.6875 4.5625 0.5625 10.9375 0.5C17 0.5 22 5.4375 22 11.5C22 14.3125 20.9375 16.8125 19.25 18.75C18.1875 19.9375 16.625 22.4375 16 24.5C16 24.5 16 24.5 16 24.5625H5.9375C5.9375 24.5 5.9375 24.5 5.9375 24.5C5.3125 22.4375 3.75 19.9375 2.6875 18.75C1 16.8125 0 14.3125 0 11.5ZM11 6.5C11.5 6.5 12 6.0625 12 5.5C12 5 11.5 4.5 11 4.5C7.125 4.5 4 7.6875 4 11.5C4 12.0625 4.4375 12.5 5 12.5C5.5 12.5 6 12.0625 6 11.5C6 8.75 8.1875 6.5 11 6.5Z" fill="url(#paint0_linear_455_2416)"/>
<defs>
<linearGradient id="paint0_linear_455_2416" x1="4.01042" y1="52.6146" x2="43.4419" y2="34.3576" gradientUnits="userSpaceOnUse">
<stop stop-color="#982DEC"/>
<stop offset="0.572917" stop-color="#DC8DF8"/>
<stop offset="0.895833" stop-color="#A9C4F3"/>
</linearGradient>
</defs>
</svg>
