<svg width="69" height="13" viewBox="0 0 69 13" fill="none" xmlns="http://www.w3.org/2000/svg">
<path d="M1 6.5L1.66154 5.8721L2.32308 5.25409L2.98462 4.65574L3.64615 4.08647L4.30769 3.55526L4.96923 3.0705L5.63077 2.63982L6.29231 2.27001L6.95385 1.96692L7.61538 1.73532L8.27692 1.57885L8.93846 1.5H9.6L10.2615 1.57885L10.9231 1.73532L11.5846 1.96692L12.2462 2.27001L12.9077 2.63982L13.5692 3.0705L14.2308 3.55526L14.8923 4.08647L15.5538 4.65574L16.2154 5.25409L16.8769 5.8721L17.5385 6.5L18.2 7.12791L18.8615 7.74591L19.5231 8.34426L20.1846 8.91353L20.8462 9.44474L21.5077 9.9295L22.1692 10.3602L22.8308 10.73L23.4923 11.0331L24.1538 11.2647L24.8154 11.4211L25.4769 11.5H26.1385L26.8 11.4211L27.4615 11.2647L28.1231 11.0331L28.7846 10.73L29.4462 10.3602L30.1077 9.9295L30.7692 9.44474L31.4308 8.91353L32.0923 8.34426L32.7538 7.74591L33.4154 7.12791L34.0769 6.5L34.7385 5.8721L35.4 5.25409L36.0615 4.65574L36.7231 4.08647L37.3846 3.55526L38.0462 3.0705L38.7077 2.63982L39.3692 2.27001L40.0308 1.96692L40.6923 1.73532L41.3538 1.57885L42.0154 1.5L42.6769 1.5L43.3385 1.57885L44 1.73532L44.6615 1.96692L45.3231 2.27001L45.9846 2.63982L46.6462 3.0705L47.3077 3.55526L47.9692 4.08647L48.6308 4.65574L49.2923 5.25409L49.9538 5.8721L50.6154 6.5L51.2769 7.12791L51.9385 7.74591L52.6 8.34426L53.2615 8.91353L53.9231 9.44474L54.5846 9.9295L55.2462 10.3602L55.9077 10.73L56.5692 11.0331L57.2308 11.2647L57.8923 11.4211L58.5538 11.5H59.2154L59.8769 11.4211L60.5385 11.2647L61.2 11.0331L61.8615 10.73L62.5231 10.3602L63.1846 9.9295L63.8461 9.44474L64.5077 8.91353L65.1692 8.34426L65.8308 7.74591L66.4923 7.12791L67.1538 6.5" stroke="#D5B352" stroke-width="2.6"/>
</svg>
