<svg width="25" height="25" viewBox="0 0 25 25" fill="none" xmlns="http://www.w3.org/2000/svg">
<path d="M22.125 0.25C23.5469 0.25 24.75 1.45312 24.75 2.875V22.125C24.75 23.6016 23.5469 24.75 22.125 24.75H14.5781V16.4375H17.75L18.3516 12.5H14.5781V9.98438C14.5781 8.89062 15.125 7.85156 16.8203 7.85156H18.5156V4.51562C18.5156 4.51562 16.9844 4.24219 15.4531 4.24219C12.3906 4.24219 10.3672 6.15625 10.3672 9.54688V12.5H6.92188V16.4375H10.3672V24.75H2.875C1.39844 24.75 0.25 23.6016 0.25 22.125V2.875C0.25 1.45312 1.39844 0.25 2.875 0.25H22.125Z" fill="white"/>
</svg>
