<svg width="173" height="173" viewBox="0 0 173 173" fill="none" xmlns="http://www.w3.org/2000/svg">
<circle cx="86.0341" cy="86.966" r="86.0344" fill="url(#paint0_radial_263_8149)"/>
<path d="M86.4375 92.3438C89.3888 92.3438 91.7813 89.9513 91.7813 87C91.7813 84.0487 89.3888 81.6562 86.4375 81.6562C83.4862 81.6562 81.0938 84.0487 81.0938 87C81.0938 89.9513 83.4862 92.3438 86.4375 92.3438Z" fill="#61DAFB"/>
<path d="M106.734 78.1875C105.703 77.8125 104.625 77.4375 103.5 77.1094C103.781 75.9844 104.016 74.8594 104.203 73.7812C105.187 67.5937 104.109 63.2344 101.109 61.5469C100.219 61.0312 99.2344 60.7969 98.1094 60.7969C94.8281 60.7969 90.6562 63.2344 86.4375 67.3125C82.2187 63.2344 78.0469 60.7969 74.7656 60.7969C73.6406 60.7969 72.6562 61.0312 71.7656 61.5469C68.7656 63.2812 67.6875 67.6406 68.6719 73.7812C68.8594 74.8594 69.0938 75.9844 69.375 77.1094C68.25 77.4375 67.1719 77.7656 66.1406 78.1875C60.2813 80.4375 57.0938 83.5312 57.0938 87C57.0938 90.4688 60.3281 93.5625 66.1406 95.8125C67.1719 96.1875 68.25 96.5625 69.375 96.8906C69.0938 98.0156 68.8594 99.1406 68.6719 100.219C67.6875 106.406 68.7656 110.766 71.7656 112.453C72.6562 112.969 73.6406 113.203 74.7656 113.203C78.0937 113.203 82.2656 110.766 86.4375 106.688C90.6562 110.766 94.8281 113.203 98.1094 113.203C99.2344 113.203 100.219 112.969 101.109 112.453C104.109 110.719 105.187 106.359 104.203 100.219C104.016 99.1406 103.781 98.0156 103.5 96.8906C104.625 96.5625 105.703 96.2344 106.734 95.8125C112.594 93.5625 115.781 90.4688 115.781 87C115.781 83.5312 112.594 80.4375 106.734 78.1875ZM99.7969 63.8906C101.719 65.0156 102.375 68.4844 101.578 73.4062C101.437 74.3906 101.203 75.4219 100.922 76.5C98.4844 75.9375 95.9062 75.5625 93.1875 75.3281C91.5937 73.0781 89.9531 71.0625 88.3125 69.2344C91.7812 65.8125 95.2969 63.4688 98.1562 63.4688C98.7656 63.4688 99.3281 63.6094 99.7969 63.8906ZM94.5469 91.6875C93.7031 93.1875 92.7187 94.6875 91.6875 96.1875C89.9531 96.3281 88.2187 96.375 86.4375 96.375C84.6094 96.375 82.875 96.3281 81.1875 96.1875C80.1562 94.6875 79.2187 93.1875 78.375 91.6875C77.4844 90.1406 76.6406 88.5469 75.8906 87C76.6406 85.4531 77.4844 83.8594 78.375 82.3125C79.2187 80.8125 80.2031 79.3125 81.2344 77.8125C82.9687 77.6719 84.7031 77.625 86.4844 77.625C88.3125 77.625 90.0469 77.6719 91.7344 77.8125C92.7656 79.3125 93.7031 80.8125 94.5469 82.3125C95.4375 83.8594 96.2812 85.4531 97.0312 87C96.2344 88.5469 95.4375 90.0938 94.5469 91.6875ZM98.4375 90.1406C99.1406 91.7812 99.7031 93.375 100.219 94.9688C98.625 95.3438 96.9375 95.625 95.1562 95.8594C95.7187 94.9688 96.3281 94.0312 96.8437 93.0469C97.4062 92.0625 97.9219 91.0781 98.4375 90.1406ZM86.4375 102.844C85.3125 101.625 84.2344 100.312 83.2031 98.9531C84.2812 99 85.3594 99.0469 86.4375 99.0469C87.5156 99.0469 88.5937 99 89.6719 98.9531C88.6406 100.312 87.5625 101.625 86.4375 102.844ZM77.7187 95.8125C75.9375 95.5781 74.25 95.2969 72.6562 94.9219C73.1719 93.375 73.7344 91.7344 74.4375 90.0938C74.9531 91.0312 75.4687 92.0156 76.0312 92.9531C76.5937 93.9844 77.1562 94.875 77.7187 95.8125ZM74.4375 83.8594C73.7344 82.2187 73.1719 80.625 72.6562 79.0312C74.25 78.6562 75.9375 78.375 77.7187 78.1406C77.1562 79.0312 76.5469 79.9688 76.0312 80.9531C75.4687 81.9375 74.9531 82.9219 74.4375 83.8594ZM86.4375 71.1562C87.5625 72.375 88.6406 73.6875 89.6719 75.0469C88.5937 75 87.5156 74.9531 86.4375 74.9531C85.3594 74.9531 84.2812 75 83.2031 75.0469C84.2344 73.6875 85.3125 72.375 86.4375 71.1562ZM96.8437 81L95.1562 78.1875C96.9375 78.4219 98.625 78.7031 100.219 79.0781C99.7031 80.625 99.1406 82.2656 98.4375 83.9063C97.9219 82.9219 97.4062 81.9375 96.8437 81ZM71.2969 73.4062C70.5 68.4844 71.1562 65.0156 73.0781 63.8906C73.5469 63.6094 74.1094 63.4688 74.7187 63.4688C77.5312 63.4688 81.0469 65.7656 84.5625 69.2344C82.9219 71.0156 81.2812 73.0781 79.6875 75.3281C76.9687 75.5625 74.3906 75.9844 71.9531 76.5C71.6719 75.4219 71.4844 74.3906 71.2969 73.4062ZM59.7187 87C59.7187 84.7969 62.3906 82.4531 67.0781 80.7188C68.0156 80.3438 69.0469 80.0156 70.0781 79.7344C70.8281 82.0781 71.7656 84.5625 72.8906 87.0469C71.7656 89.5312 70.7812 91.9688 70.0781 94.3125C63.6094 92.4375 59.7187 89.625 59.7187 87ZM73.0781 110.109C71.1562 108.984 70.5 105.516 71.2969 100.594C71.4375 99.6094 71.6719 98.5781 71.9531 97.5C74.3906 98.0625 76.9687 98.4375 79.6875 98.6719C81.2812 100.922 82.9219 102.938 84.5625 104.766C81.0937 108.188 77.5781 110.531 74.7187 110.531C74.1094 110.531 73.5469 110.391 73.0781 110.109ZM101.578 100.594C102.375 105.516 101.719 108.984 99.7969 110.109C99.3281 110.391 98.7656 110.531 98.1562 110.531C95.3437 110.531 91.8281 108.234 88.3125 104.766C89.9531 102.984 91.5937 100.922 93.1875 98.6719C95.9062 98.4375 98.4844 98.0156 100.922 97.5C101.203 98.5781 101.391 99.6094 101.578 100.594ZM105.797 93.2812C104.859 93.6562 103.828 93.9844 102.797 94.2656C102.047 91.9219 101.109 89.4375 99.9844 86.9531C101.109 84.4688 102.094 82.0313 102.797 79.6875C109.266 81.5625 113.156 84.375 113.156 87C113.156 89.2031 110.437 91.5469 105.797 93.2812Z" fill="#61DAFB"/>
<ellipse cx="87.2217" cy="35.4203" rx="57.7739" ry="34.0994" transform="rotate(1.31904 87.2217 35.4203)" fill="url(#paint1_linear_263_8149)"/>
<ellipse cx="62.0257" cy="20.4963" rx="16.9685" ry="8.07475" transform="rotate(-21.8222 62.0257 20.4963)" fill="url(#paint2_radial_263_8149)"/>
<defs>
<radialGradient id="paint0_radial_263_8149" cx="0" cy="0" r="1" gradientUnits="userSpaceOnUse" gradientTransform="translate(86.0341 86.966) rotate(90) scale(86.0344)">
<stop offset="0.854167" stop-color="#C4C4C4" stop-opacity="0"/>
<stop offset="1" stop-color="#6A15F3" stop-opacity="0.69"/>
</radialGradient>
<linearGradient id="paint1_linear_263_8149" x1="87.2217" y1="1.32089" x2="87.2217" y2="69.5196" gradientUnits="userSpaceOnUse">
<stop stop-color="#4215F3" stop-opacity="0.44"/>
<stop offset="0.885417" stop-color="white" stop-opacity="0.02"/>
</linearGradient>
<radialGradient id="paint2_radial_263_8149" cx="0" cy="0" r="1" gradientUnits="userSpaceOnUse" gradientTransform="translate(62.0257 20.4963) rotate(90) scale(8.07475 16.9685)">
<stop offset="0.760417" stop-color="white" stop-opacity="0.88"/>
<stop offset="1" stop-color="white" stop-opacity="0"/>
</radialGradient>
</defs>
</svg>
