<svg width="173" height="173" viewBox="0 0 173 173" fill="none" xmlns="http://www.w3.org/2000/svg">
<circle cx="86.0344" cy="86.966" r="86.0344" fill="url(#paint0_radial_263_8161)"/>
<path d="M102.068 96.0065L69.8472 115.139L111.567 112.308L114.781 70.2402L102.068 96.0065Z" fill="url(#paint1_linear_263_8161)"/>
<path d="M111.635 112.28L108.05 87.5303L98.2822 100.427L111.635 112.28Z" fill="url(#paint2_linear_263_8161)"/>
<path d="M111.684 112.28L85.4134 110.218L69.9868 115.085L111.684 112.28Z" fill="url(#paint3_linear_263_8161)"/>
<path d="M70.0237 115.091L76.5867 93.5911L62.1445 96.6792L70.0237 115.091Z" fill="url(#paint4_linear_263_8161)"/>
<path d="M98.2793 100.499L92.2409 76.8455L74.96 93.0445L98.2793 100.499Z" fill="url(#paint5_linear_263_8161)"/>
<path d="M113.41 77.1782L97.0746 63.8367L92.5259 78.5428L113.41 77.1782Z" fill="url(#paint6_linear_263_8161)"/>
<path d="M105.771 59.0798L96.163 64.3893L90.1021 59.0085L105.771 59.0798Z" fill="url(#paint7_linear_263_8161)"/>
<path d="M58.3447 103.891L62.3694 96.5507L59.1135 87.8062L58.3447 103.891Z" fill="url(#paint8_linear_263_8161)"/>
<path d="M58.8975 87.53L62.1726 96.8211L76.4062 93.628L92.6564 78.5258L97.2421 63.9594L90.022 58.8604L77.7454 63.455C73.8773 67.0527 66.3721 74.1707 66.1017 74.3047C65.8331 74.4411 61.1446 83.3024 58.8975 87.53Z" fill="white"/>
<path d="M70.3992 70.838C78.7814 62.5271 89.5884 57.616 93.7359 61.8005C97.8811 65.9846 93.4856 76.1537 85.1025 84.4623C76.7194 92.7708 66.0464 97.9524 61.9027 93.7679C57.7547 89.5866 62.0161 79.1471 70.3992 70.838Z" fill="url(#paint9_linear_263_8161)"/>
<path d="M70.0234 115.083L76.5344 93.5144L98.1602 100.461C90.3414 107.793 81.6447 113.992 70.0234 115.083Z" fill="url(#paint10_linear_263_8161)"/>
<path d="M92.6851 78.4832L98.2369 100.473C104.768 93.6056 110.63 86.2223 113.501 77.0901L92.6851 78.4832Z" fill="url(#paint11_linear_263_8161)"/>
<path d="M113.444 77.2017C115.666 70.4962 116.178 60.8775 105.702 59.0916L97.1055 63.84L113.444 77.2017Z" fill="url(#paint12_linear_263_8161)"/>
<path d="M58.3447 103.794C58.6522 114.861 66.6364 115.025 70.0377 115.123L62.1819 96.7759L58.3447 103.794Z" fill="#9E1209"/>
<path d="M92.7163 78.5174C97.7357 81.6022 107.85 87.7977 108.055 87.9116C108.374 88.0911 112.416 81.095 113.334 77.1416L92.7163 78.5174Z" fill="url(#paint13_radial_263_8161)"/>
<path d="M76.5259 93.5144L85.2306 110.309C90.3774 107.517 94.4082 104.116 98.0996 100.473L76.5259 93.5144Z" fill="url(#paint14_radial_263_8161)"/>
<path d="M62.1473 96.7986L60.9141 111.485C63.2409 114.664 66.4425 114.94 69.8016 114.692C67.3716 108.645 62.5181 96.5534 62.1473 96.7986Z" fill="url(#paint15_linear_263_8161)"/>
<path d="M97.0552 63.8766L114.348 66.3033C113.425 62.3925 110.591 59.8687 105.76 59.0798L97.0552 63.8766Z" fill="url(#paint16_linear_263_8161)"/>
<ellipse cx="87.2217" cy="35.4203" rx="57.7739" ry="34.0994" transform="rotate(1.31904 87.2217 35.4203)" fill="url(#paint17_linear_263_8161)"/>
<ellipse cx="62.0257" cy="20.4963" rx="16.9685" ry="8.07475" transform="rotate(-21.8222 62.0257 20.4963)" fill="url(#paint18_radial_263_8161)"/>
<defs>
<radialGradient id="paint0_radial_263_8161" cx="0" cy="0" r="1" gradientUnits="userSpaceOnUse" gradientTransform="translate(86.0344 86.966) rotate(90) scale(86.0344)">
<stop offset="0.854167" stop-color="#C4C4C4" stop-opacity="0"/>
<stop offset="1" stop-color="#6A15F3" stop-opacity="0.69"/>
</radialGradient>
<linearGradient id="paint1_linear_263_8161" x1="107.928" y1="120.258" x2="96.0231" y2="99.238" gradientUnits="userSpaceOnUse">
<stop stop-color="#FB7655"/>
<stop offset="0.41" stop-color="#E42B1E"/>
<stop offset="0.99" stop-color="#990000"/>
<stop offset="1" stop-color="#990000"/>
</linearGradient>
<linearGradient id="paint2_linear_263_8161" x1="113.858" y1="102.6" x2="98.5147" y2="92.304" gradientUnits="userSpaceOnUse">
<stop stop-color="#871101"/>
<stop offset="0.99" stop-color="#911209"/>
<stop offset="1" stop-color="#911209"/>
</linearGradient>
<linearGradient id="paint3_linear_263_8161" x1="101.582" y1="120.895" x2="86.2393" y2="110.599" gradientUnits="userSpaceOnUse">
<stop stop-color="#871101"/>
<stop offset="0.99" stop-color="#911209"/>
<stop offset="1" stop-color="#911209"/>
</linearGradient>
<linearGradient id="paint4_linear_263_8161" x1="69.3675" y1="95.1459" x2="71.7459" y2="110.604" gradientUnits="userSpaceOnUse">
<stop stop-color="white"/>
<stop offset="0.23" stop-color="#E57252"/>
<stop offset="0.46" stop-color="#DE3B20"/>
<stop offset="0.99" stop-color="#A60003"/>
<stop offset="1" stop-color="#A60003"/>
</linearGradient>
<linearGradient id="paint5_linear_263_8161" x1="85.7276" y1="80.7126" x2="86.6042" y2="96.4889" gradientUnits="userSpaceOnUse">
<stop stop-color="white"/>
<stop offset="0.23" stop-color="#E4714E"/>
<stop offset="0.56" stop-color="#BE1A0D"/>
<stop offset="0.99" stop-color="#A80D00"/>
<stop offset="1" stop-color="#A80D00"/>
</linearGradient>
<linearGradient id="paint6_linear_263_8161" x1="100.246" y1="66.1298" x2="102.87" y2="77.437" gradientUnits="userSpaceOnUse">
<stop stop-color="white"/>
<stop offset="0.18" stop-color="#E46342"/>
<stop offset="0.4" stop-color="#C82410"/>
<stop offset="0.99" stop-color="#A80D00"/>
<stop offset="1" stop-color="#A80D00"/>
</linearGradient>
<linearGradient id="paint7_linear_263_8161" x1="92.2344" y1="62.1478" x2="103.54" y2="56.4951" gradientUnits="userSpaceOnUse">
<stop stop-color="white"/>
<stop offset="0.54" stop-color="#C81F11"/>
<stop offset="0.99" stop-color="#BF0905"/>
<stop offset="1" stop-color="#BF0905"/>
</linearGradient>
<linearGradient id="paint8_linear_263_8161" x1="59.4566" y1="91.2055" x2="60.3875" y2="100.522" gradientUnits="userSpaceOnUse">
<stop stop-color="white"/>
<stop offset="0.31" stop-color="#DE4024"/>
<stop offset="0.99" stop-color="#BF190B"/>
<stop offset="1" stop-color="#BF190B"/>
</linearGradient>
<linearGradient id="paint9_linear_263_8161" x1="53.0588" y1="103.04" x2="96.802" y2="58.0599" gradientUnits="userSpaceOnUse">
<stop stop-color="#BD0012"/>
<stop offset="0.07" stop-color="white"/>
<stop offset="0.17" stop-color="white"/>
<stop offset="0.27" stop-color="#C82F1C"/>
<stop offset="0.33" stop-color="#820C01"/>
<stop offset="0.46" stop-color="#A31601"/>
<stop offset="0.72" stop-color="#B31301"/>
<stop offset="0.99" stop-color="#E82609"/>
<stop offset="1" stop-color="#E82609"/>
</linearGradient>
<linearGradient id="paint10_linear_263_8161" x1="86.5656" y1="107.577" x2="73.3895" y2="104.326" gradientUnits="userSpaceOnUse">
<stop stop-color="#8C0C01"/>
<stop offset="0.54" stop-color="#990C00"/>
<stop offset="0.99" stop-color="#A80D0E"/>
<stop offset="1" stop-color="#A80D0E"/>
</linearGradient>
<linearGradient id="paint11_linear_263_8161" x1="109.196" y1="91.7638" x2="97.4907" y2="81.2732" gradientUnits="userSpaceOnUse">
<stop stop-color="#7E110B"/>
<stop offset="0.99" stop-color="#9E0C00"/>
<stop offset="1" stop-color="#9E0C00"/>
</linearGradient>
<linearGradient id="paint12_linear_263_8161" x1="113.496" y1="72.5151" x2="107.666" y2="66.2817" gradientUnits="userSpaceOnUse">
<stop stop-color="#79130D"/>
<stop offset="0.99" stop-color="#9E120B"/>
<stop offset="1" stop-color="#9E120B"/>
</linearGradient>
<radialGradient id="paint13_radial_263_8161" cx="0" cy="0" r="1" gradientUnits="userSpaceOnUse" gradientTransform="translate(99.314 81.4738) scale(14.3442 14.3442)">
<stop stop-color="#A80D00"/>
<stop offset="0.99" stop-color="#7E0E08"/>
<stop offset="1" stop-color="#7E0E08"/>
</radialGradient>
<radialGradient id="paint14_radial_263_8161" cx="0" cy="0" r="1" gradientUnits="userSpaceOnUse" gradientTransform="translate(79.449 100.376) scale(19.0683 19.0683)">
<stop stop-color="#A30C00"/>
<stop offset="0.99" stop-color="#800E08"/>
<stop offset="1" stop-color="#800E08"/>
</radialGradient>
<linearGradient id="paint15_linear_263_8161" x1="65.9419" y1="115.071" x2="61.1906" y2="98.9502" gradientUnits="userSpaceOnUse">
<stop stop-color="#8B2114"/>
<stop offset="0.43" stop-color="#9E100A"/>
<stop offset="0.99" stop-color="#B3100C"/>
<stop offset="1" stop-color="#B3100C"/>
</linearGradient>
<linearGradient id="paint16_linear_263_8161" x1="102.393" y1="61.6519" x2="113.045" y2="66.3539" gradientUnits="userSpaceOnUse">
<stop stop-color="#B31000"/>
<stop offset="0.44" stop-color="#910F08"/>
<stop offset="0.99" stop-color="#791C12"/>
<stop offset="1" stop-color="#791C12"/>
</linearGradient>
<linearGradient id="paint17_linear_263_8161" x1="87.2217" y1="1.32089" x2="87.2217" y2="69.5196" gradientUnits="userSpaceOnUse">
<stop stop-color="#4215F3" stop-opacity="0.44"/>
<stop offset="0.885417" stop-color="white" stop-opacity="0.02"/>
</linearGradient>
<radialGradient id="paint18_radial_263_8161" cx="0" cy="0" r="1" gradientUnits="userSpaceOnUse" gradientTransform="translate(62.0257 20.4963) rotate(90) scale(8.07475 16.9685)">
<stop offset="0.760417" stop-color="white" stop-opacity="0.88"/>
<stop offset="1" stop-color="white" stop-opacity="0"/>
</radialGradient>
</defs>
</svg>
