<svg width="173" height="173" viewBox="0 0 173 173" fill="none" xmlns="http://www.w3.org/2000/svg">
<circle cx="86.0341" cy="86.9662" r="86.0344" fill="url(#paint0_radial_272_8280)"/>
<path d="M85.7146 62.7413C83.7356 62.7507 81.8465 62.919 80.1834 63.2134C75.2849 64.0787 74.3962 65.8899 74.3962 69.2307V73.6421H85.971V75.1126H70.0518C66.6881 75.1126 63.7424 77.1343 62.8209 80.9818C61.7578 85.3904 61.7109 88.142 62.8209 92.7456C63.6435 96.1726 65.6085 98.6138 68.9728 98.6138H72.9529V93.3254C72.9529 89.5046 76.2581 86.1348 80.1838 86.1348H91.7456C94.964 86.1348 97.5327 83.4845 97.5327 80.2529V69.2312C97.5327 66.0938 94.8862 63.7374 91.7456 63.2138C89.7562 62.8829 87.6932 62.7324 85.7146 62.7413ZM79.4549 66.2893C80.6502 66.2893 81.6271 67.2817 81.6271 68.5023C81.6271 69.7177 80.6507 70.7007 79.4549 70.7007C78.2549 70.7007 77.2832 69.7177 77.2832 68.5023C77.2828 67.2817 78.2549 66.2893 79.4549 66.2893Z" fill="url(#paint1_linear_272_8280)"/>
<path d="M98.9758 75.1125V80.2528C98.9758 84.2372 95.5971 87.5911 91.7449 87.5911H80.1832C77.0163 87.5911 74.396 90.3019 74.396 93.4735V104.496C74.396 107.633 77.1232 109.478 80.1832 110.378C83.8469 111.454 87.3607 111.649 91.7449 110.378C94.6587 109.533 97.5321 107.835 97.5321 104.496V100.084H85.9708V98.6133H103.32C106.684 98.6133 107.938 96.2672 109.108 92.745C110.317 89.1192 110.265 85.6322 109.108 80.9813C108.277 77.6321 106.689 75.1121 103.32 75.1121H98.9758V75.1125ZM92.4729 103.025C93.6733 103.025 94.6451 104.008 94.6451 105.225C94.6451 106.444 93.6729 107.437 92.4729 107.437C91.2776 107.437 90.3012 106.444 90.3012 105.225C90.3012 104.008 91.2776 103.025 92.4729 103.025Z" fill="url(#paint2_linear_272_8280)"/>
<path opacity="0.444" d="M101.614 113.061C101.614 114.722 94.6686 116.069 86.1022 116.069C77.5353 116.069 70.5903 114.722 70.5903 113.061C70.5903 111.4 77.5349 110.053 86.1022 110.053C94.6686 110.053 101.614 111.399 101.614 113.061Z" fill="url(#paint3_radial_272_8280)"/>
<ellipse cx="87.2217" cy="35.4205" rx="57.7739" ry="34.0994" transform="rotate(1.31904 87.2217 35.4205)" fill="url(#paint4_linear_272_8280)"/>
<ellipse cx="62.0257" cy="20.4966" rx="16.9685" ry="8.07475" transform="rotate(-21.8222 62.0257 20.4966)" fill="url(#paint5_radial_272_8280)"/>
<defs>
<radialGradient id="paint0_radial_272_8280" cx="0" cy="0" r="1" gradientUnits="userSpaceOnUse" gradientTransform="translate(86.0341 86.9662) rotate(90) scale(86.0344)">
<stop offset="0.854167" stop-color="#C4C4C4" stop-opacity="0"/>
<stop offset="1" stop-color="#6A15F3" stop-opacity="0.69"/>
</radialGradient>
<linearGradient id="paint1_linear_272_8280" x1="60.8455" y1="64.1207" x2="87.5426" y2="86.8878" gradientUnits="userSpaceOnUse">
<stop stop-color="#5A9FD4"/>
<stop offset="1" stop-color="#306998"/>
</linearGradient>
<linearGradient id="paint2_linear_272_8280" x1="97.5869" y1="101.04" x2="88.0129" y2="87.6142" gradientUnits="userSpaceOnUse">
<stop stop-color="#FFD43B"/>
<stop offset="1" stop-color="#FFE873"/>
</linearGradient>
<radialGradient id="paint3_radial_272_8280" cx="0" cy="0" r="1" gradientUnits="userSpaceOnUse" gradientTransform="translate(86.0395 112.975) rotate(-90) scale(3.00859 13.2252)">
<stop stop-color="#B8B8B8" stop-opacity="0.498"/>
<stop offset="1" stop-color="#7F7F7F" stop-opacity="0"/>
</radialGradient>
<linearGradient id="paint4_linear_272_8280" x1="87.2217" y1="1.32114" x2="87.2217" y2="69.5199" gradientUnits="userSpaceOnUse">
<stop stop-color="#4215F3" stop-opacity="0.44"/>
<stop offset="0.885417" stop-color="white" stop-opacity="0.02"/>
</linearGradient>
<radialGradient id="paint5_radial_272_8280" cx="0" cy="0" r="1" gradientUnits="userSpaceOnUse" gradientTransform="translate(62.0257 20.4966) rotate(90) scale(8.07475 16.9685)">
<stop offset="0.760417" stop-color="white" stop-opacity="0.88"/>
<stop offset="1" stop-color="white" stop-opacity="0"/>
</radialGradient>
</defs>
</svg>
