<svg width="173" height="173" viewBox="0 0 173 173" fill="none" xmlns="http://www.w3.org/2000/svg">
<circle cx="86.0341" cy="86.966" r="86.0344" fill="url(#paint0_radial_263_8137)"/>
<rect x="57" y="57" width="60" height="60" rx="30" fill="white"/>
<path fill-rule="evenodd" clip-rule="evenodd" d="M87.044 116.168C103.11 116.143 116.116 103.074 116.116 86.9527C116.116 71.0935 103.17 58.0322 87.704 57.7562C71.4609 57.4665 57.8878 70.6468 57.8835 86.6297C57.8789 103.073 70.8267 116.191 87.044 116.168ZM86.9967 59.1704C102.422 59.1652 114.712 71.6977 114.707 87.4266C114.702 102.276 102.086 114.698 87.0079 114.702C71.6465 114.705 59.2931 102.25 59.2935 86.7605C59.2945 71.6701 71.8401 59.1755 86.9967 59.1704ZM75.3548 73.8263C75.607 74.6668 74.901 74.9593 74.1506 75.0179C73.3607 75.0788 72.5714 75.1383 71.6545 75.2082C74.6807 84.2241 77.6615 93.1065 80.7131 102.196C80.9306 101.84 81.0201 101.739 81.0595 101.622C82.7348 96.6151 84.4195 91.6111 86.0521 86.5899C86.2012 86.1319 86.1271 85.5254 85.964 85.0547C85.1001 82.561 84.0651 80.1216 83.3076 77.5979C82.7896 75.8701 82.1024 74.7521 80.0601 74.9522C79.7123 74.9865 79.2876 74.2379 78.8981 73.8512C79.3692 73.5699 79.837 73.0524 80.3123 73.0454C84.4711 72.9815 88.6307 72.9827 92.7895 73.0491C93.2667 73.0571 93.7345 73.5882 94.2056 73.8765C93.7931 74.2533 93.4373 74.8187 92.955 74.9644C92.181 75.1979 91.3228 75.1538 90.3965 75.2363L99.4664 102.218C100.84 97.6538 102.119 93.4632 103.362 89.2618C104.471 85.5113 103.81 82.0088 101.804 78.7055C101.202 77.7122 100.461 76.7485 100.119 75.6652C99.7312 74.4329 99.4087 73.0299 99.6145 71.7938C99.9637 69.699 101.571 68.6588 103.746 68.4596C91.8435 57.413 73.1395 61.3674 66.2475 73.3697C68.9006 73.2474 71.4337 73.0866 73.9687 73.0519C74.4478 73.0458 75.2423 73.4508 75.3548 73.8263ZM80.0971 110.375C80.0418 110.537 80.0385 110.717 79.995 110.986C85.1245 112.408 90.1551 112.305 95.3039 110.57L87.4382 89.0265C84.921 96.3441 82.507 103.358 80.0971 110.375ZM76.1334 109.401L64.2829 76.8933C58.9368 87.3361 63.0037 103.269 76.1334 109.401ZM111.959 88.5127C112.335 83.5749 110.632 76.7382 109.161 75.7979C108.997 77.6143 109.111 79.6351 108.59 81.4763C107.363 85.8146 105.863 90.0774 104.418 94.3519C102.848 98.9982 101.216 103.623 99.6103 108.258C107.153 103.786 111.299 97.1869 111.959 88.5127Z" fill="#494949"/>
<ellipse cx="87.2217" cy="35.4203" rx="57.7739" ry="34.0994" transform="rotate(1.31904 87.2217 35.4203)" fill="url(#paint1_linear_263_8137)"/>
<ellipse cx="62.0257" cy="20.4963" rx="16.9685" ry="8.07475" transform="rotate(-21.8222 62.0257 20.4963)" fill="url(#paint2_radial_263_8137)"/>
<defs>
<radialGradient id="paint0_radial_263_8137" cx="0" cy="0" r="1" gradientUnits="userSpaceOnUse" gradientTransform="translate(86.0341 86.966) rotate(90) scale(86.0344)">
<stop offset="0.854167" stop-color="#C4C4C4" stop-opacity="0"/>
<stop offset="1" stop-color="#6A15F3" stop-opacity="0.69"/>
</radialGradient>
<linearGradient id="paint1_linear_263_8137" x1="87.2217" y1="1.32089" x2="87.2217" y2="69.5196" gradientUnits="userSpaceOnUse">
<stop stop-color="#4215F3" stop-opacity="0.44"/>
<stop offset="0.885417" stop-color="white" stop-opacity="0.02"/>
</linearGradient>
<radialGradient id="paint2_radial_263_8137" cx="0" cy="0" r="1" gradientUnits="userSpaceOnUse" gradientTransform="translate(62.0257 20.4963) rotate(90) scale(8.07475 16.9685)">
<stop offset="0.760417" stop-color="white" stop-opacity="0.88"/>
<stop offset="1" stop-color="white" stop-opacity="0"/>
</radialGradient>
</defs>
</svg>
