<svg width="173" height="173" viewBox="0 0 173 173" fill="none" xmlns="http://www.w3.org/2000/svg">
<circle cx="86.0344" cy="86.966" r="86.0344" fill="url(#paint0_radial_263_8167)"/>
<path d="M111.219 71.3906L88.5781 58.3594C88.2031 58.125 87.6875 58.0312 87.125 58.0312C86.5625 58.0312 86.0469 58.1719 85.6719 58.3594L63.1719 71.4375C62.375 71.9062 61.8125 73.0781 61.8125 73.9688V100.078C61.8125 100.594 61.9062 101.203 62.2813 101.719L112.344 72.6563C112.063 72.0938 111.641 71.6719 111.219 71.3906Z" fill="#659AD3"/>
<path d="M62.1406 101.672C62.375 102.047 62.7031 102.375 63.0313 102.562L85.625 115.641C86 115.875 86.5156 115.969 87.0781 115.969C87.6406 115.969 88.1563 115.828 88.5313 115.641L111.031 102.562C111.828 102.094 112.391 100.922 112.391 100.031V73.9219C112.391 73.5 112.344 73.0312 112.109 72.6094L62.1406 101.672Z" fill="#03599C"/>
<path d="M97.1094 92.6719C95.1406 96.1406 91.3906 98.4844 87.125 98.4844C80.7969 98.4844 75.6406 93.3281 75.6406 87C75.6406 80.6719 80.7969 75.5156 87.125 75.5156C91.3906 75.5156 95.1406 77.8594 97.1094 81.375L103.203 77.8594C100.016 72.2812 94.0156 68.4844 87.125 68.4844C76.9063 68.4844 68.6094 76.7812 68.6094 87C68.6094 97.2187 76.9063 105.516 87.125 105.516C93.9688 105.516 99.9688 101.766 103.156 96.2344L97.1094 92.6719Z" fill="white"/>
<ellipse cx="87.2217" cy="35.4203" rx="57.7739" ry="34.0994" transform="rotate(1.31904 87.2217 35.4203)" fill="url(#paint1_linear_263_8167)"/>
<ellipse cx="62.0257" cy="20.4963" rx="16.9685" ry="8.07475" transform="rotate(-21.8222 62.0257 20.4963)" fill="url(#paint2_radial_263_8167)"/>
<defs>
<radialGradient id="paint0_radial_263_8167" cx="0" cy="0" r="1" gradientUnits="userSpaceOnUse" gradientTransform="translate(86.0344 86.966) rotate(90) scale(86.0344)">
<stop offset="0.854167" stop-color="#C4C4C4" stop-opacity="0"/>
<stop offset="1" stop-color="#6A15F3" stop-opacity="0.69"/>
</radialGradient>
<linearGradient id="paint1_linear_263_8167" x1="87.2217" y1="1.32089" x2="87.2217" y2="69.5196" gradientUnits="userSpaceOnUse">
<stop stop-color="#4215F3" stop-opacity="0.44"/>
<stop offset="0.885417" stop-color="white" stop-opacity="0.02"/>
</linearGradient>
<radialGradient id="paint2_radial_263_8167" cx="0" cy="0" r="1" gradientUnits="userSpaceOnUse" gradientTransform="translate(62.0257 20.4963) rotate(90) scale(8.07475 16.9685)">
<stop offset="0.760417" stop-color="white" stop-opacity="0.88"/>
<stop offset="1" stop-color="white" stop-opacity="0"/>
</radialGradient>
</defs>
</svg>
