<svg width="173" height="173" viewBox="0 0 173 173" fill="none" xmlns="http://www.w3.org/2000/svg">
<circle cx="86.0344" cy="86.966" r="86.0344" fill="url(#paint0_radial_263_8155)"/>
<path d="M65.6737 110.379L60.9839 57.7786H112.516L107.821 110.371L86.7187 116.221L65.6737 110.379Z" fill="#E44D26"/>
<path d="M86.75 111.75L103.802 107.022L107.814 62.0793H86.75V111.75Z" fill="#F16529"/>
<path d="M86.7503 81.5883H78.2134L77.6237 74.9817H86.7503V68.5308H70.5732L70.7279 70.2614L72.3132 88.0397H86.7503V81.5883ZM86.7503 98.3428L86.7217 98.3508L79.5371 96.4101L79.0782 91.2656H72.6015L73.5053 101.395L86.7207 105.063L86.7503 105.055V98.3428Z" fill="#EBEBEB"/>
<path d="M86.7275 81.5883V88.0397H94.6714L93.9229 96.4064L86.7275 98.3484V105.06L99.9533 101.395L100.05 100.305L101.566 83.3208L101.723 81.5883H99.9852H86.7275ZM86.7275 68.5308V74.9817H102.311L102.44 73.5323L102.734 70.2614L102.889 68.5308H86.7275Z" fill="white"/>
<ellipse cx="87.2217" cy="35.4203" rx="57.7739" ry="34.0994" transform="rotate(1.31904 87.2217 35.4203)" fill="url(#paint1_linear_263_8155)"/>
<ellipse cx="62.0257" cy="20.4963" rx="16.9685" ry="8.07475" transform="rotate(-21.8222 62.0257 20.4963)" fill="url(#paint2_radial_263_8155)"/>
<defs>
<radialGradient id="paint0_radial_263_8155" cx="0" cy="0" r="1" gradientUnits="userSpaceOnUse" gradientTransform="translate(86.0344 86.966) rotate(90) scale(86.0344)">
<stop offset="0.854167" stop-color="#C4C4C4" stop-opacity="0"/>
<stop offset="1" stop-color="#6A15F3" stop-opacity="0.69"/>
</radialGradient>
<linearGradient id="paint1_linear_263_8155" x1="87.2217" y1="1.32089" x2="87.2217" y2="69.5196" gradientUnits="userSpaceOnUse">
<stop stop-color="#4215F3" stop-opacity="0.44"/>
<stop offset="0.885417" stop-color="white" stop-opacity="0.02"/>
</linearGradient>
<radialGradient id="paint2_radial_263_8155" cx="0" cy="0" r="1" gradientUnits="userSpaceOnUse" gradientTransform="translate(62.0257 20.4963) rotate(90) scale(8.07475 16.9685)">
<stop offset="0.760417" stop-color="white" stop-opacity="0.88"/>
<stop offset="1" stop-color="white" stop-opacity="0"/>
</radialGradient>
</defs>
</svg>
