<svg width="25" height="25" viewBox="0 0 25 25" fill="none" xmlns="http://www.w3.org/2000/svg">
<path d="M12.5 9.60156C14.0859 9.60156 15.3984 10.9141 15.3984 12.5C15.3984 13.0469 15.2344 13.5391 15.0156 13.9766C13.8672 15.9453 11.0781 15.9453 9.92969 13.9766C8.83594 12.0625 10.2031 9.60156 12.5 9.60156ZM19.2812 7.35938C19.7734 8.50781 19.6641 11.2422 19.6641 12.5C19.6641 13.8125 19.7734 16.5469 19.2812 17.6953C19.0078 18.4609 18.4062 19.0625 17.6406 19.3359C16.4922 19.8281 13.7578 19.7188 12.5 19.7188C11.1875 19.7188 8.45312 19.8281 7.30469 19.3359C6.53906 19.0625 5.9375 18.4609 5.66406 17.6953C5.22656 16.5469 5.28125 13.8125 5.28125 12.5C5.28125 11.2422 5.22656 8.50781 5.66406 7.35938C5.9375 6.59375 6.53906 5.99219 7.30469 5.71875C8.45312 5.22656 11.1875 5.33594 12.5 5.33594C13.7578 5.33594 16.4922 5.22656 17.6406 5.71875C18.4062 5.99219 19.0078 6.59375 19.2812 7.35938ZM12.5 16.9844C14.9609 17.0391 16.9844 15.0156 16.9844 12.5C16.9844 11.7344 16.7656 10.9688 16.3828 10.2578C14.6328 7.30469 10.3125 7.30469 8.5625 10.2578C6.86719 13.2656 9 16.9844 12.5 16.9844ZM17.1484 8.89062C17.6953 8.89062 18.1875 8.45312 18.1875 7.85156C18.1875 7.6875 18.1328 7.46875 18.0234 7.30469C17.6406 6.64844 16.6562 6.64844 16.2188 7.30469C15.8359 8.01562 16.3281 8.89062 17.1484 8.89062ZM22.125 0.25C23.5469 0.25 24.75 1.45312 24.75 2.875V22.125C24.75 23.6016 23.5469 24.75 22.125 24.75H2.875C1.39844 24.75 0.25 23.6016 0.25 22.125V2.875C0.25 1.45312 1.39844 0.25 2.875 0.25H22.125ZM21.1406 16.1094C21.25 14.6875 21.25 10.3672 21.1406 8.94531C21.0859 7.52344 20.7578 6.26562 19.7734 5.28125C18.7344 4.24219 17.4766 3.91406 16.1094 3.85938C14.6328 3.75 10.3125 3.75 8.89062 3.85938C7.46875 3.91406 6.21094 4.24219 5.22656 5.22656C4.1875 6.26562 3.85938 7.52344 3.80469 8.89062C3.69531 10.3672 3.69531 14.6875 3.80469 16.1094C3.85938 17.5312 4.1875 18.7891 5.22656 19.7734C6.21094 20.8125 7.46875 21.1406 8.89062 21.1953C10.3125 21.3047 14.6328 21.3047 16.1094 21.1953C17.4766 21.1406 18.7344 20.8125 19.7734 19.7734C20.7578 18.7891 21.0859 17.5312 21.1406 16.1094Z" fill="white"/>
</svg>
