<svg width="641" height="641" viewBox="0 0 641 641" fill="none" xmlns="http://www.w3.org/2000/svg">
<g clip-path="url(#clip0_461_1961)" filter="url(#filter0_f_461_1961)">
<path d="M320.5 635C147.084 635 6 493.916 6 320.5C6 147.084 147.084 6 320.5 6C493.916 6 635 147.084 635 320.5C635 493.916 493.916 635 320.5 635ZM320.5 10.3037C149.456 10.3037 10.3037 149.456 10.3037 320.5C10.3037 491.544 149.456 630.696 320.5 630.696C491.544 630.696 630.696 491.544 630.696 320.5C630.696 149.456 491.544 10.3037 320.5 10.3037Z" fill="#220C3D"/>
<path d="M320.502 605.479C163.362 605.479 35.5205 477.637 35.5205 320.498C35.5205 163.358 163.362 35.5165 320.502 35.5165C477.641 35.5165 605.483 163.358 605.483 320.498C605.483 477.637 477.641 605.479 320.502 605.479ZM320.502 39.8202C165.735 39.8202 39.8242 165.731 39.8242 320.498C39.8242 475.265 165.735 601.175 320.502 601.175C475.269 601.175 601.179 475.265 601.179 320.498C601.179 165.731 475.269 39.8202 320.502 39.8202Z" fill="#220C3D"/>
<path d="M320.498 575.965C179.636 575.965 65.0361 461.365 65.0361 320.502C65.0361 179.64 179.636 65.0402 320.498 65.0402C461.361 65.0402 575.961 179.64 575.961 320.502C575.961 461.365 461.361 575.965 320.498 575.965ZM320.498 69.3438C182.008 69.3438 69.3398 182.012 69.3398 320.502C69.3398 458.993 182.008 571.661 320.498 571.661C458.989 571.661 571.657 458.993 571.657 320.502C571.657 182.012 458.989 69.3438 320.498 69.3438Z" fill="#220C3D"/>
<path d="M320.5 546.44C195.914 546.44 94.5566 445.083 94.5566 320.497C94.5566 195.91 195.914 94.5531 320.5 94.5531C445.086 94.5531 546.443 195.91 546.443 320.497C546.443 445.083 445.086 546.44 320.5 546.44ZM320.5 98.8568C198.286 98.8568 98.8603 198.283 98.8603 320.497C98.8603 442.71 198.286 542.136 320.5 542.136C442.714 542.136 542.14 442.71 542.14 320.497C542.14 198.283 442.714 98.8568 320.5 98.8568Z" fill="#220C3D"/>
<path d="M320.498 516.926C212.188 516.926 124.073 428.811 124.073 320.501C124.073 212.192 212.188 124.077 320.498 124.077C428.807 124.077 516.922 212.192 516.922 320.501C516.922 428.811 428.807 516.926 320.498 516.926ZM320.498 128.38C214.561 128.38 128.377 214.564 128.377 320.501C128.377 426.438 214.561 512.622 320.498 512.622C426.435 512.622 512.619 426.438 512.619 320.501C512.619 214.564 426.435 128.38 320.498 128.38Z" fill="#220C3D"/>
<path d="M320.501 487.351C228.468 487.351 153.65 412.478 153.65 320.501C153.65 228.524 228.523 153.65 320.501 153.65C412.478 153.65 487.351 228.524 487.351 320.501C487.351 412.478 412.478 487.351 320.501 487.351ZM320.501 157.899C230.841 157.899 157.899 230.841 157.899 320.501C157.899 410.161 230.841 483.103 320.501 483.103C410.161 483.103 483.103 410.161 483.103 320.501C483.103 230.841 410.161 157.899 320.501 157.899Z" fill="#220C3D"/>
<path d="M320.503 457.834C244.747 457.834 183.171 396.203 183.171 320.502C183.171 244.801 244.802 183.171 320.503 183.171C396.203 183.171 457.834 244.801 457.834 320.502C457.834 396.203 396.203 457.834 320.503 457.834ZM320.503 187.419C247.119 187.419 187.419 247.119 187.419 320.502C187.419 393.886 247.119 453.585 320.503 453.585C393.886 453.585 453.586 393.886 453.586 320.502C453.586 247.119 393.886 187.419 320.503 187.419Z" fill="#220C3D"/>
<path d="M320.5 428.313C261.021 428.313 212.688 379.924 212.688 320.5C212.688 261.076 261.076 212.687 320.5 212.687C379.924 212.687 428.313 261.076 428.313 320.5C428.313 379.924 379.924 428.313 320.5 428.313ZM320.5 216.936C263.394 216.936 216.936 263.393 216.936 320.5C216.936 377.606 263.394 424.064 320.5 424.064C377.607 424.064 424.065 377.606 424.065 320.5C424.065 263.393 377.607 216.936 320.5 216.936Z" fill="#220C3D"/>
<path d="M320.501 398.791C277.299 398.791 242.207 363.645 242.207 320.497C242.207 277.35 277.354 242.204 320.501 242.204C363.648 242.204 398.795 277.35 398.795 320.497C398.795 363.645 363.648 398.791 320.501 398.791ZM320.501 246.452C279.671 246.452 246.456 279.668 246.456 320.497C246.456 361.327 279.671 394.543 320.501 394.543C361.331 394.543 394.546 361.327 394.546 320.497C394.546 279.668 361.331 246.452 320.501 246.452Z" fill="#220C3D"/>
<path d="M320.499 369.277C293.628 369.277 271.724 347.373 271.724 320.502C271.724 293.632 293.628 271.727 320.499 271.727C347.369 271.727 369.274 293.632 369.274 320.502C369.274 347.373 347.369 369.277 320.499 369.277ZM320.499 275.976C295.946 275.976 275.972 295.949 275.972 320.502C275.972 345.055 295.946 365.029 320.499 365.029C345.052 365.029 365.025 345.055 365.025 320.502C365.025 295.949 345.052 275.976 320.499 275.976Z" fill="#220C3D"/>
<path d="M320.5 339.753C309.907 339.753 301.244 331.09 301.244 320.496C301.244 309.903 309.907 301.24 320.5 301.24C331.094 301.24 339.757 309.903 339.757 320.496C339.757 331.09 331.094 339.753 320.5 339.753ZM320.5 305.544C312.224 305.544 305.548 312.275 305.548 320.496C305.548 328.718 312.279 335.449 320.5 335.449C328.722 335.449 335.453 328.718 335.453 320.496C335.453 312.275 328.722 305.544 320.5 305.544Z" fill="#220C3D"/>
</g>
<defs>
<filter id="filter0_f_461_1961" x="0.316265" y="0.316265" width="640.367" height="640.367" filterUnits="userSpaceOnUse" color-interpolation-filters="sRGB">
<feFlood flood-opacity="0" result="BackgroundImageFix"/>
<feBlend mode="normal" in="SourceGraphic" in2="BackgroundImageFix" result="shape"/>
<feGaussianBlur stdDeviation="2.84187" result="effect1_foregroundBlur_461_1961"/>
</filter>
<clipPath id="clip0_461_1961">
<rect width="629" height="629" fill="white" transform="translate(6 6)"/>
</clipPath>
</defs>
</svg>
