<svg width="11" height="15" viewBox="0 0 11 15" fill="none" xmlns="http://www.w3.org/2000/svg">
<path d="M5.5 0.75C6.99479 0.786458 8.23438 1.29688 9.21875 2.28125C10.2031 3.26562 10.7135 4.50521 10.75 6C10.75 6.5651 10.6771 7.07552 10.5312 7.53125C10.3854 8.00521 10.1029 8.5612 9.68359 9.19922C9.26432 9.85547 8.66276 10.7305 7.87891 11.8242C7.36849 12.5534 6.75781 13.4375 6.04688 14.4766C5.90104 14.6589 5.71875 14.75 5.5 14.75C5.28125 14.75 5.09896 14.6589 4.95312 14.4766C4.26042 13.4557 3.64974 12.5807 3.12109 11.8516C2.33724 10.7396 1.73568 9.85547 1.31641 9.19922C0.897135 8.5612 0.614583 8.00521 0.46875 7.53125C0.322917 7.07552 0.25 6.5651 0.25 6C0.286458 4.50521 0.796875 3.26562 1.78125 2.28125C2.76562 1.29688 4.00521 0.786458 5.5 0.75ZM5.5 12.9453C5.64583 12.7266 5.79167 12.5169 5.9375 12.3164C6.2474 11.8607 6.52995 11.4505 6.78516 11.0859C7.56901 9.97396 8.15234 9.1263 8.53516 8.54297C8.91797 7.95964 9.16406 7.49479 9.27344 7.14844C9.40104 6.78385 9.45573 6.40104 9.4375 6C9.40104 4.88802 9.01823 3.95833 8.28906 3.21094C7.54167 2.48177 6.61198 2.09896 5.5 2.0625C4.38802 2.09896 3.45833 2.48177 2.71094 3.21094C1.98177 3.95833 1.59896 4.88802 1.5625 6C1.54427 6.40104 1.59896 6.78385 1.72656 7.14844C1.83594 7.49479 2.08203 7.95964 2.46484 8.54297C2.84766 9.1263 3.43099 9.97396 4.21484 11.0859C4.59766 11.6328 5.02604 12.2526 5.5 12.9453ZM5.5 3.78516C6.11979 3.80339 6.63932 4.02214 7.05859 4.44141C7.45964 4.84245 7.66927 5.35286 7.6875 5.97266C7.66927 6.59245 7.45964 7.11198 7.05859 7.53125C6.63932 7.93229 6.11979 8.14193 5.5 8.16016C4.88021 8.14193 4.36068 7.93229 3.94141 7.53125C3.54036 7.11198 3.33073 6.59245 3.3125 5.97266C3.33073 5.35286 3.54036 4.84245 3.94141 4.44141C4.36068 4.02214 4.88021 3.80339 5.5 3.78516ZM5.5 6.875C5.75521 6.875 5.96484 6.79297 6.12891 6.62891C6.29297 6.46484 6.375 6.25521 6.375 6C6.375 5.74479 6.29297 5.53516 6.12891 5.37109C5.96484 5.20703 5.75521 5.125 5.5 5.125C5.24479 5.125 5.03516 5.20703 4.87109 5.37109C4.70703 5.53516 4.625 5.74479 4.625 6C4.625 6.25521 4.70703 6.46484 4.87109 6.62891C5.03516 6.79297 5.24479 6.875 5.5 6.875Z" fill="white"/>
</svg>
