<svg width="40" height="28" viewBox="0 0 40 28" fill="none" xmlns="http://www.w3.org/2000/svg">
<path d="M25 0C26.625 0 28 1.375 28 3V19C28 20.6875 26.625 22 25 22H16.625L17.3125 24H22C23.0625 24 24 24.9375 24 26C24 27.125 23.0625 28 22 28H6C4.875 28 4 27.125 4 26C4 24.9375 4.875 24 6 24H10.625L11.3125 22H3C1.3125 22 0 20.6875 0 19V3C0 1.375 1.3125 0 3 0H25ZM4 4V18H24V4H4ZM37 0C38.625 0 40 1.375 40 3V25C40 26.6875 38.625 28 37 28H33C31.3125 28 30 26.6875 30 25V3C30 1.375 31.3125 0 33 0H37ZM34 4C33.4375 4 33 4.5 33 5C33 5.5625 33.4375 6 34 6H36C36.5 6 37 5.5625 37 5C37 4.5 36.5 4 36 4H34ZM34 10H36C36.5 10 37 9.5625 37 9C37 8.5 36.5 8 36 8H34C33.4375 8 33 8.5 33 9C33 9.5625 33.4375 10 34 10ZM35 23C36.0625 23 37 22.125 37 21C37 19.9375 36.0625 19 35 19C33.875 19 33 19.9375 33 21C33 22.125 33.875 23 35 23Z" fill="url(#paint0_linear_455_2440)"/>
<defs>
<linearGradient id="paint0_linear_455_2440" x1="7.29167" y1="45.6667" x2="51.9982" y2="2.15111" gradientUnits="userSpaceOnUse">
<stop stop-color="#982DEC"/>
<stop offset="0.572917" stop-color="#DC8DF8"/>
<stop offset="0.895833" stop-color="#A9C4F3"/>
</linearGradient>
</defs>
</svg>
