<svg width="30" height="21" viewBox="0 0 30 21" fill="none" xmlns="http://www.w3.org/2000/svg">
<path d="M4.8125 9.4375C3.19531 9.4375 1.9375 8.17969 1.9375 6.5625C1.9375 4.99023 3.19531 3.6875 4.8125 3.6875C6.38477 3.6875 7.6875 4.99023 7.6875 6.5625C7.6875 8.17969 6.38477 9.4375 4.8125 9.4375ZM24.9375 9.4375C23.3203 9.4375 22.0625 8.17969 22.0625 6.5625C22.0625 4.99023 23.3203 3.6875 24.9375 3.6875C26.5098 3.6875 27.8125 4.99023 27.8125 6.5625C27.8125 8.17969 26.5098 9.4375 24.9375 9.4375ZM26.375 10.875C27.9473 10.875 29.25 12.1777 29.25 13.75V15.1875C29.25 15.9961 28.5762 16.625 27.8125 16.625H24.8477C24.5332 14.5137 23.2754 12.7168 21.4336 11.7285C21.9727 11.2344 22.6914 10.875 23.5 10.875H26.375ZM14.875 10.875C12.0898 10.875 9.84375 8.62891 9.84375 5.84375C9.84375 3.10352 12.0898 0.8125 14.875 0.8125C17.6152 0.8125 19.9062 3.10352 19.9062 5.84375C19.9062 8.62891 17.6152 10.875 14.875 10.875ZM18.2891 12.3125C21.1641 12.3125 23.5 14.6484 23.5 17.5234V18.7812C23.5 19.9941 22.5117 20.9375 21.3438 20.9375H8.40625C7.19336 20.9375 6.25 19.9941 6.25 18.7812V17.5234C6.25 14.6484 8.54102 12.3125 11.416 12.3125H11.7754C12.7188 12.7617 13.752 13.0312 14.875 13.0312C15.9531 13.0312 16.9863 12.7617 17.9297 12.3125H18.2891ZM8.27148 11.7285C6.42969 12.7168 5.17188 14.5137 4.85742 16.625H1.9375C1.12891 16.625 0.5 15.9961 0.5 15.1875V13.75C0.5 12.1777 1.75781 10.875 3.375 10.875H6.25C7.01367 10.875 7.73242 11.2344 8.27148 11.7285Z" fill="white"/>
</svg>
