<svg width="40" height="29" viewBox="0 0 40 29" fill="none" xmlns="http://www.w3.org/2000/svg">
<path d="M6 12.5C3.75 12.5 2 10.75 2 8.5C2 6.3125 3.75 4.5 6 4.5C8.1875 4.5 10 6.3125 10 8.5C10 10.75 8.1875 12.5 6 12.5ZM34 12.5C31.75 12.5 30 10.75 30 8.5C30 6.3125 31.75 4.5 34 4.5C36.1875 4.5 38 6.3125 38 8.5C38 10.75 36.1875 12.5 34 12.5ZM36 14.5C38.1875 14.5 40 16.3125 40 18.5V20.5C40 21.625 39.0625 22.5 38 22.5H33.875C33.4375 19.5625 31.6875 17.0625 29.125 15.6875C29.875 15 30.875 14.5 32 14.5H36ZM20 14.5C16.125 14.5 13 11.375 13 7.5C13 3.6875 16.125 0.5 20 0.5C23.8125 0.5 27 3.6875 27 7.5C27 11.375 23.8125 14.5 20 14.5ZM24.75 16.5C28.75 16.5 32 19.75 32 23.75V25.5C32 27.1875 30.625 28.5 29 28.5H11C9.3125 28.5 8 27.1875 8 25.5V23.75C8 19.75 11.1875 16.5 15.1875 16.5H15.6875C17 17.125 18.4375 17.5 20 17.5C21.5 17.5 22.9375 17.125 24.25 16.5H24.75ZM10.8125 15.6875C8.25 17.0625 6.5 19.5625 6.0625 22.5H2C0.875 22.5 0 21.625 0 20.5V18.5C0 16.3125 1.75 14.5 4 14.5H8C9.0625 14.5 10.0625 15 10.8125 15.6875Z" fill="url(#paint0_linear_455_2428)"/>
<defs>
<linearGradient id="paint0_linear_455_2428" x1="7.29167" y1="50.6146" x2="58.2452" y2="7.72057" gradientUnits="userSpaceOnUse">
<stop stop-color="#982DEC"/>
<stop offset="0.572917" stop-color="#DC8DF8"/>
<stop offset="0.895833" stop-color="#A9C4F3"/>
</linearGradient>
</defs>
</svg>
