<svg width="3046" height="1320" viewBox="0 0 3046 1320" fill="none" xmlns="http://www.w3.org/2000/svg">
<path d="M2188.39 801.054C2177.03 825.73 2147.68 845.412 2104.1 859.815C2060.54 874.211 2002.89 883.284 1935.15 886.807C1799.66 893.852 1623.92 878.696 1440.05 839.657C1256.17 800.618 1099.03 745.095 993.589 686.896C940.868 657.795 901.101 628.038 877.381 599.358C853.651 570.664 846.053 543.139 857.419 518.463C868.784 493.788 898.125 474.105 941.704 459.703C985.264 445.307 1042.92 436.234 1110.66 432.711C1246.15 425.665 1421.89 440.821 1605.76 479.86C1789.63 518.9 1946.78 574.423 2052.22 632.622C2104.94 661.723 2144.71 691.479 2168.43 720.16C2192.16 748.853 2199.76 776.379 2188.39 801.054Z" stroke="#C09AFF" stroke-opacity="0.12"/>
<path d="M1973.47 762.141C1967.41 775.295 1949.6 785.371 1922.35 792.256C1895.12 799.133 1858.6 802.788 1815.33 803.188C1728.81 803.988 1615.4 791.769 1495.61 766.337C1375.83 740.904 1272.37 707.077 1201.93 672.951C1166.71 655.887 1139.76 638.756 1123.16 622.573C1106.53 606.371 1100.36 591.203 1106.41 578.049C1112.47 564.895 1130.28 554.819 1157.54 547.934C1184.76 541.057 1221.28 537.402 1264.55 537.002C1351.07 536.202 1464.48 548.421 1584.27 573.853C1704.05 599.286 1807.51 633.113 1877.95 667.239C1913.17 684.303 1940.12 701.434 1956.72 717.617C1973.35 733.819 1979.53 748.987 1973.47 762.141Z" stroke="#C09AFF" stroke-opacity="0.12" stroke-width="0.651443"/>
<path d="M2490.03 865.099C2473.47 901.053 2430.74 929.688 2367.4 950.623C2304.07 971.551 2220.28 984.735 2121.83 989.855C1924.95 1000.09 1669.59 978.07 1402.42 921.345C1135.25 864.62 906.906 783.943 753.692 699.372C677.082 657.085 619.281 613.838 584.799 572.143C550.307 530.436 539.217 490.374 555.777 454.42C572.337 418.465 615.067 389.83 678.412 368.896C741.737 347.967 825.529 334.783 923.974 329.664C1120.86 319.425 1376.22 341.449 1643.39 398.174C1910.55 454.898 2138.9 535.576 2292.12 620.147C2368.73 662.434 2426.53 705.681 2461.01 747.375C2495.5 789.083 2506.59 829.145 2490.03 865.099Z" stroke="#C09AFF" stroke-opacity="0.12"/>
<path d="M2857.07 943.029C2834.19 992.707 2775.17 1032.24 2687.77 1061.12C2600.4 1090 2484.8 1108.18 2349 1115.24C2077.41 1129.37 1725.16 1098.99 1356.64 1020.74C988.118 942.499 673.134 831.213 461.783 714.552C356.105 656.22 276.361 596.558 228.783 539.028C181.194 481.485 165.856 426.168 188.737 376.49C211.618 326.812 270.641 287.283 358.036 258.4C445.411 229.523 561.012 211.336 696.81 204.274C968.398 190.15 1320.65 220.531 1689.17 298.776C2057.69 377.02 2372.67 488.305 2584.03 604.966C2689.7 663.298 2769.45 722.961 2817.03 780.491C2864.61 838.034 2879.95 893.351 2857.07 943.029Z" stroke="#C09AFF" stroke-opacity="0.12"/>
</svg>
