<svg width="28" height="24" viewBox="0 0 28 24" fill="none" xmlns="http://www.w3.org/2000/svg">
<path d="M21 10.4925C16.8809 10.8667 14.5143 11.211 13.0613 12.3485C11.3538 13.6807 10.9494 16.1205 10.5 21C10.0357 15.9408 9.61626 13.516 7.74394 12.2138C6.29101 11.196 3.93937 10.8667 0 10.5075C4.10414 10.1333 6.48573 9.78902 7.92368 8.66643C9.64622 7.31932 10.0506 4.89451 10.5 0C10.9194 4.50535 11.2939 6.91518 12.6869 8.3072C14.0799 9.69922 16.5064 10.0884 21 10.4925Z" fill="white"/>
<path d="M28 18.4961C25.8424 18.6921 24.6027 18.8724 23.8417 19.4683C22.9472 20.1661 22.7354 21.444 22.5 24C22.2568 21.35 22.0371 20.0798 21.0563 19.3977C20.2953 18.8646 19.0635 18.6921 17 18.5039C19.1498 18.3079 20.3973 18.1276 21.1505 17.5396C22.0528 16.8339 22.2646 15.5638 22.5 13C22.7197 15.3599 22.9158 16.6222 23.6455 17.3514C24.3752 18.0805 25.6462 18.2844 28 18.4961Z" fill="white"/>
</svg>
