<svg width="25" height="25" viewBox="0 0 25 25" fill="none" xmlns="http://www.w3.org/2000/svg">
<path d="M22.125 0.25C23.5469 0.25 24.75 1.45312 24.75 2.875V22.125C24.75 23.6016 23.5469 24.75 22.125 24.75H2.875C1.39844 24.75 0.25 23.6016 0.25 22.125V2.875C0.25 1.45312 1.39844 0.25 2.875 0.25H22.125ZM19.4453 8.94531C20.1016 8.45312 20.7578 7.79688 21.25 7.08594C20.5938 7.35938 19.8828 7.57812 19.1719 7.63281C19.8828 7.19531 20.4844 6.53906 20.7578 5.66406C20.0469 6.10156 19.2812 6.375 18.4609 6.53906C17.8047 5.82812 16.875 5.39062 15.8359 5.39062C13.6484 5.39062 11.8438 7.41406 12.3359 9.82031C9.38281 9.65625 6.70312 8.23438 4.95312 6.04688C4.625 6.59375 4.46094 7.19531 4.46094 7.90625C4.46094 9.10938 5.0625 10.2031 6.04688 10.8594C5.44531 10.8594 4.89844 10.6953 4.46094 10.4219V10.4766C4.46094 12.2266 5.66406 13.6484 7.30469 13.9766C6.75781 14.1406 6.26562 14.1406 5.66406 14.0312C6.15625 15.4531 7.46875 16.4922 9.05469 16.5469C7.79688 17.4766 6.26562 18.0781 4.57031 18.0781C4.29688 18.0781 4.02344 18.0781 3.75 18.0234C5.33594 19.0625 7.19531 19.6094 9.21875 19.6094C15.8359 19.6094 19.4453 14.1406 19.4453 9.4375C19.4453 9.27344 19.4453 9.10938 19.4453 8.94531Z" fill="white"/>
</svg>
